<svg width="44" height="44" fill="none" xmlns="http://www.w3.org/2000/svg"><rect width="43.181" height="43.181" rx="21.59" fill="#F3ECFE"/><path d="M35.259 19.518a3.292 3.292 0 1 1-6.573-.286 3.374 3.374 0 0 1 .746-1.815 3.293 3.293 0 0 1 5.827 2.101Zm-6.028 4.022c-.066.038-.13.08-.194.12-.064.04-.133.08-.197.125-.065.044-.122.09-.183.134-.06.045-.127.092-.187.141-.061.05-.113.098-.17.148-.056.049-.12.103-.177.157-.058.055-.103.106-.154.159-.056.058-.113.114-.167.174-.048.055-.092.112-.139.169-.051.063-.105.125-.154.19-.043.057-.082.118-.122.177-.047.068-.096.135-.14.206-.038.06-.072.124-.107.186-.042.073-.086.144-.124.22l-.009.015c-.012-.024-.027-.047-.04-.07a5.257 5.257 0 0 0-.121-.219c-.03-.049-.057-.098-.087-.146a5.158 5.158 0 0 0-.142-.213c-.03-.045-.06-.09-.093-.134a5.705 5.705 0 0 0-.173-.22c-.03-.036-.058-.074-.09-.11a5.677 5.677 0 0 0-.672-.66c-.044-.037-.09-.069-.134-.104a6.427 6.427 0 0 0-.28-.21c-.054-.037-.11-.07-.165-.106a5.155 5.155 0 0 0-.456-.26c-.049-.024-.096-.053-.146-.076.034-.021.066-.044.1-.066l.076-.05c.103-.072.204-.147.301-.226l.045-.04a4.45 4.45 0 0 0 .249-.226l.06-.057c.088-.09.172-.183.253-.279l.045-.057a4.49 4.49 0 0 0 .2-.266c.014-.02.03-.04.042-.06.07-.105.135-.212.197-.323l.038-.074c.053-.1.102-.201.148-.305l.025-.056a4.424 4.424 0 0 0 .248-.797c.003-.013.007-.025.009-.038a4.436 4.436 0 0 0 .07-.487c.012-.134.02-.27.02-.408 0-.117-.006-.234-.015-.35l-.01-.1a4.4 4.4 0 0 0-.035-.266c-.005-.03-.008-.06-.014-.09a4.378 4.378 0 0 0-.074-.336c-.005-.021-.012-.041-.018-.062a4.525 4.525 0 0 0-.229-.634l-.026-.06a4.457 4.457 0 0 0-.137-.272 4.435 4.435 0 0 1 2.056 0c-.048.09-.094.18-.136.27-.01.02-.018.043-.028.064a4.523 4.523 0 0 0-.227.627l-.018.063c-.03.111-.054.224-.074.337l-.014.09a4.4 4.4 0 0 0-.035.265l-.01.1a4.527 4.527 0 0 0-.015.35 4.482 4.482 0 0 0 .03.505c.015.132.034.263.06.391l.008.035a4.83 4.83 0 0 0 .25.8l.023.053c.046.105.095.207.148.306l.04.077c.061.11.127.218.197.322l.04.06c.063.091.13.18.199.265.016.02.032.041.049.06.08.097.164.19.253.279l.057.055c.08.078.162.153.247.225.017.014.032.03.05.042.097.08.198.156.303.227l.07.046c.037.025.073.05.111.074-.06.028-.116.06-.174.09-.067.04-.137.075-.205.114ZM27.005 9.446a3.292 3.292 0 1 1 0 6.584 3.292 3.292 0 0 1 0-6.584Zm-2.426 7.97a3.293 3.293 0 1 1-5.072 4.204 3.293 3.293 0 0 1 5.072-4.203Zm-5.273 6.124c-.064.036-.125.076-.187.115-.069.043-.138.084-.206.13-.06.04-.114.084-.172.127-.066.049-.134.097-.198.15-.054.043-.104.09-.156.136-.064.056-.13.11-.19.169-.049.046-.095.097-.142.145-.06.062-.121.123-.18.187-.044.05-.085.103-.127.155-.056.068-.113.134-.165.204-.04.053-.076.11-.114.165-.05.072-.101.143-.148.218-.036.057-.068.118-.102.177-.043.075-.09.15-.128.228l-.01.016c-.012-.026-.03-.05-.041-.076a6.153 6.153 0 0 0-.345-.57c-.032-.047-.063-.093-.096-.139a5.401 5.401 0 0 0-.171-.217l-.09-.111a5.327 5.327 0 0 0-.673-.662c-.043-.036-.09-.068-.133-.102a6.497 6.497 0 0 0-.28-.21c-.055-.037-.111-.071-.167-.106a5.178 5.178 0 0 0-.273-.164c-.06-.034-.12-.064-.18-.095-.049-.025-.096-.054-.146-.077.035-.021.067-.045.101-.067a4.554 4.554 0 0 0 .421-.314c.087-.073.17-.149.25-.228.02-.019.04-.037.059-.057a4.605 4.605 0 0 0 .5-.604l.04-.058c.07-.105.136-.213.197-.325l.038-.07a4.75 4.75 0 0 0 .15-.31l.023-.053c.05-.117.093-.24.133-.362l.025-.084c.035-.116.066-.234.09-.354l.008-.035a4.45 4.45 0 0 0 .07-.488c.012-.134.02-.27.02-.408 0-.117-.006-.233-.015-.35-.002-.033-.006-.066-.01-.1a4.482 4.482 0 0 0-.034-.266l-.015-.09a4.434 4.434 0 0 0-.074-.336l-.018-.062a4.613 4.613 0 0 0-.228-.632c-.01-.02-.017-.041-.027-.062a4.077 4.077 0 0 0-.137-.27 4.435 4.435 0 0 1 2.057 0 4.8 4.8 0 0 0-.137.272c-.01.02-.017.04-.026.06a4.554 4.554 0 0 0-.229.633l-.018.063c-.03.11-.054.223-.075.336l-.014.09a4.4 4.4 0 0 0-.035.266l-.01.1a4.532 4.532 0 0 0-.014.35 4.482 4.482 0 0 0 .03.504 4.5 4.5 0 0 0 .06.392l.008.034a5.026 5.026 0 0 0 .116.44c.04.123.083.244.133.362l.023.052c.046.105.096.207.15.308l.04.075c.06.11.126.218.196.324l.04.056c.064.092.13.181.2.268.016.02.03.04.048.06.08.096.164.19.254.279l.056.055c.08.078.163.153.248.226.017.013.032.028.049.04.097.08.198.156.303.228.023.016.047.03.07.047.037.024.073.05.111.073-.06.027-.114.06-.172.09-.069.036-.14.07-.21.109ZM17.082 9.446a3.292 3.292 0 1 1 0 6.584 3.292 3.292 0 0 1 0-6.584ZM8.83 19.518a3.292 3.292 0 1 1 6.584 0 3.292 3.292 0 0 1-6.584 0Zm-1.07 8.853a4.362 4.362 0 1 1 8.724 0v5.102H7.76v-5.102Zm9.923 0a4.362 4.362 0 1 1 8.725 0v5.102h-8.725v-5.102Zm18.647 5.102h-8.725v-5.102a4.362 4.362 0 1 1 8.725 0v5.102Z" fill="#863DF5"/></svg>