<svg width="120" height="33" fill="none" xmlns="http://www.w3.org/2000/svg"><path d="M60.728 12.464v7.49c.006.24-.04.477-.134.7a1.782 1.782 0 0 1-.413.595 1.92 1.92 0 0 1-.627.397 2.02 2.02 0 0 1-.744.138 2.08 2.08 0 0 1-.754-.134 1.98 1.98 0 0 1-.642-.394 1.84 1.84 0 0 1-.43-.596 1.74 1.74 0 0 1-.155-.705v-7.583c0-1.19-1.139-2.103-2.47-2.103-1.432 0-2.568.913-2.568 2.103v7.587c.009.243-.034.486-.128.713a1.804 1.804 0 0 1-.414.61c-.181.175-.397.314-.636.409a2.048 2.048 0 0 1-1.511 0 1.946 1.946 0 0 1-.636-.41 1.806 1.806 0 0 1-.415-.609 1.714 1.714 0 0 1-.128-.713v-7.587c0-1.19-1.136-2.103-2.534-2.103s-2.535.913-2.535 2.103v7.679a1.714 1.714 0 0 1-.152.693c-.099.22-.243.419-.424.586a1.943 1.943 0 0 1-.632.388 2.043 2.043 0 0 1-.742.13 2.042 2.042 0 0 1-1.362-.53 1.798 1.798 0 0 1-.589-1.267V8.41c.004-.487.21-.953.574-1.3a2.063 2.063 0 0 1 1.377-.559c.293 0 .583.066.844.193.26.127.484.312.652.538a7.02 7.02 0 0 1 2.989-.67c1.665-.005 3.269.584 4.49 1.646 1.205-1.081 2.817-1.673 4.484-1.646 3.478 0 6.37 2.59 6.37 5.76l-.005.09ZM70.866 21.726a8.545 8.545 0 0 1-4.527-1.307 7.772 7.772 0 0 1-2.99-3.444 7.207 7.207 0 0 1-.444-4.421 7.52 7.52 0 0 1 2.25-3.908 8.344 8.344 0 0 1 4.185-2.078 8.661 8.661 0 0 1 4.712.454 8.062 8.062 0 0 1 3.648 2.83 7.31 7.31 0 0 1 1.357 4.256c-.01 2.028-.879 3.97-2.415 5.398-1.535 1.428-3.613 2.227-5.776 2.22Zm0-11.549a4.36 4.36 0 0 0-2.312.658 3.967 3.967 0 0 0-1.533 1.75 3.675 3.675 0 0 0-.236 2.255c.16.757.556 1.452 1.138 1.997a4.253 4.253 0 0 0 2.13 1.068c.808.15 1.645.073 2.405-.222a4.115 4.115 0 0 0 1.867-1.437 3.731 3.731 0 0 0 .702-2.167 3.678 3.678 0 0 0-.314-1.495 3.881 3.881 0 0 0-.901-1.268 4.177 4.177 0 0 0-1.352-.845 4.388 4.388 0 0 0-1.594-.294ZM88.714 21.726a8.546 8.546 0 0 1-4.528-1.306 7.773 7.773 0 0 1-2.99-3.444 7.206 7.206 0 0 1-.446-4.421A7.518 7.518 0 0 1 83 8.647a8.344 8.344 0 0 1 4.185-2.078 8.662 8.662 0 0 1 4.712.453 8.062 8.062 0 0 1 3.649 2.83 7.31 7.31 0 0 1 1.356 4.256c-.01 2.028-.878 3.969-2.413 5.397-1.535 1.429-3.613 2.227-5.775 2.22Zm0-11.549a4.36 4.36 0 0 0-2.313.657 3.968 3.968 0 0 0-1.533 1.75 3.676 3.676 0 0 0-.238 2.255c.16.756.556 1.452 1.138 1.998a4.253 4.253 0 0 0 2.13 1.068c.808.15 1.645.074 2.405-.222a4.115 4.115 0 0 0 1.868-1.437 3.731 3.731 0 0 0 .701-2.167 3.679 3.679 0 0 0-.313-1.495 3.882 3.882 0 0 0-.9-1.267 4.176 4.176 0 0 0-1.352-.846 4.388 4.388 0 0 0-1.593-.294ZM113.348 8.442v13.317c0 4.236-3.609 7.699-7.989 7.699a8.3 8.3 0 0 1-3.342-.708 7.814 7.814 0 0 1-2.703-1.974 1.816 1.816 0 0 1-.45-1.33 1.85 1.85 0 0 1 1.285-1.616 1.936 1.936 0 0 1 1.454.114c.221.112.415.266.569.451.392.434.88.784 1.429 1.026.55.242 1.148.37 1.755.377 2.308 0 4.192-1.83 4.192-4.054v-1.248a7.807 7.807 0 0 1-3.703.945c-4.095 0-7.444-3.353-7.444-7.491V8.502c0-.469.2-.919.553-1.25a1.952 1.952 0 0 1 1.334-.519c.5 0 .98.187 1.334.518.353.332.552.782.552 1.251v5.454c0 2.104 1.658 3.839 3.673 3.839s3.704-1.735 3.704-3.84V8.443c0-.473.2-.927.557-1.261.356-.335.84-.522 1.344-.522.505 0 .989.187 1.345.522.357.334.557.788.557 1.26h-.006ZM118.018 3.902a2.098 2.098 0 0 1-1.432-.536 1.844 1.844 0 0 1-.616-1.325V1.89c0-.248.052-.493.153-.723.101-.229.25-.437.437-.613.187-.175.409-.314.654-.41a2.128 2.128 0 0 1 1.542 0c.244.096.466.235.654.41.187.176.335.384.436.613.102.23.154.475.154.723v.152c-.008.491-.219.96-.589 1.307a2.08 2.08 0 0 1-1.393.554Zm0 17.895a2.104 2.104 0 0 1-1.441-.548 1.847 1.847 0 0 1-.607-1.342V8.136c0-.501.212-.982.59-1.336.378-.354.89-.553 1.425-.553.534 0 1.047.199 1.425.553.378.354.59.835.59 1.336v11.763c-.001.495-.209.97-.58 1.324-.37.353-.874.556-1.402.565v.009Z" fill="#5F0BDD"/><path fill-rule="evenodd" clip-rule="evenodd" d="m31.099 14.335-5.155 1.231.168-.899.09-.493c.201-1.089.403-2.186.274-3.293-.182-1.56-1.043-3.068-2.39-3.9a4.407 4.407 0 0 0-2.47-.651c-2.274.062-3.784 1.515-4.938 3.156-.372-1.117-1.07-2.218-2.11-2.842h-.013c-1.582-.957-3.36-.418-4.399.95-1.207 1.588-2.207 3.312-3.204 5.03-.43.74-.859 1.478-1.303 2.204a8.744 8.744 0 0 1-1.678 2.105.604.604 0 0 0-.062.046 3.592 3.592 0 0 1-.475.337c-.173.102-.32.175-.444.236-.588.293-1.788.464-2.598.549a13.875 13.875 0 0 0 1.487 3.679c.652-.073 1.3-.184 1.937-.331 1.247-.335 1.452-.473 1.984-.83l.146-.098c1.283-.864 2.217-2.112 3.016-3.36.233-.364.459-.731.68-1.101.117-.196.228-.39.339-.583.33-.63.66-1.447.967-2.21.296-.735.572-1.42.808-1.837.145-.254.761-1.311 1.063-.556.077.23.117.47.118.71.04.384.056.77.049 1.157a26.168 26.168 0 0 1-.466 4.786c-.31 1.648 1.356 3.013 3.018 2.18 1.493-.746 2.064-2.404 2.569-3.87.097-.284.192-.56.291-.822.322-.927.736-1.824 1.236-2.678.074-.115.147-.238.223-.364.354-.589.751-1.25 1.33-1.592 1.146-.693 1.264.957 1.2 1.756-.066.848-.194 1.685-.322 2.521-.174 1.146-.349 2.292-.364 3.468-.012 1.317 1.196 1.991 2.385 1.85.243-.045.482-.107.715-.188.495-.138 1.223-.354 2.027-.594 1.328-.395 2.863-.852 3.902-1.12-.805 3.333-2.834 6.293-5.732 8.365v6.12c-3.49.006-6.88-1.094-9.62-3.122a16.34 16.34 0 0 1-7.863-2.105c-2.373-1.346-4.32-3.263-5.638-5.552a13.696 13.696 0 0 1-1.59-9.706 14.119 14.119 0 0 1 2.503-5.552 15.196 15.196 0 0 1 4.685-4.128A16.242 16.242 0 0 1 13.54.395a16.55 16.55 0 0 1 6.41.472 15.903 15.903 0 0 1 5.658 2.861 14.752 14.752 0 0 1 3.94 4.763 13.857 13.857 0 0 1 1.55 5.844Z" fill="#5F0BDD"/></svg>