<?xml version="1.0" encoding="UTF-8"?>
<!DOCTYPE svg PUBLIC "-//W3C//DTD SVG 1.1//EN" "http://www.w3.org/Graphics/SVG/1.1/DTD/svg11.dtd">
<!-- Creator: CorelDRAW 2021 (64-Bit) -->
<svg xmlns="http://www.w3.org/2000/svg" xml:space="preserve" width="0.853067in" height="0.909256in" version="1.1" style="shape-rendering:geometricPrecision; text-rendering:geometricPrecision; image-rendering:optimizeQuality; fill-rule:evenodd; clip-rule:evenodd"
viewBox="0 0 55.14 58.78"
 xmlns:xlink="http://www.w3.org/1999/xlink"
 xmlns:xodm="http://www.corel.com/coreldraw/odm/2003">
 <defs>
  <style type="text/css">
   <![CDATA[
    .str0 {stroke:#00DA7A;stroke-width:1.35;stroke-linecap:round;stroke-linejoin:round;stroke-miterlimit:2.61313}
    .fil3 {fill:none}
    .fil4 {fill:#00DA7A}
    .fil2 {fill:#29085C}
    .fil0 {fill:#29085C;fill-opacity:0.188235}
    .fil1 {fill:#00DA7A;fill-opacity:0.341176}
   ]]>
  </style>
 </defs>
 <g id="Layer_x0020_1">
  <metadata id="CorelCorpID_0Corel-Layer"/>
  <path class="fil0" d="M6.15 0l42.85 0c3.38,0 6.15,2.77 6.15,6.15l0 46.48c0,3.38 -2.77,6.15 -6.15,6.15l-42.85 0c-3.38,0 -6.15,-2.77 -6.15,-6.15l0 -46.48c0,-3.38 2.77,-6.15 6.15,-6.15z"/>
  <g id="_2442804304992">
   <path class="fil1" d="M11.74 11.86l25.53 0c0.81,0 1.46,0.66 1.46,1.46l0 23.33c0,0.81 -0.66,1.46 -1.46,1.46l-25.53 0c-0.81,0 -1.46,-0.66 -1.46,-1.46l0 -23.33c0,-0.81 0.66,-1.46 1.46,-1.46z"/>
   <polygon class="fil2" points="6.85,22.15 6.85,43.27 41.51,43.27 41.51,29.25 29.1,29.25 22.04,21.98 "/>
   <path class="fil3 str0" d="M41.13 24.86l-1.07 0 -0.31 1.87 -1.49 0.8 -1.68 -1.11 -1.49 1.49 1.03 1.68 -0.53 1.37 -1.95 0.46 0 2.21 1.72 0.31 0.76 1.57 -1.15 1.49 1.62 1.62 1.58 -1.05 1.41 0.65 0.38 1.87 1.26 0m-0.44 -15.24l1.07 0 0.31 1.87 1.49 0.8 1.68 -1.11 1.49 1.49 -1.03 1.68 0.53 1.37 1.95 0.46 0 2.21 -1.72 0.31 -0.76 1.57 1.15 1.49 -1.62 1.62 -1.58 -1.05 -1.41 0.65 -0.38 1.87 -1.26 0"/>
   <path class="fil4" d="M40.96 28.95c1.97,0 3.57,1.6 3.57,3.57 0,1.97 -1.6,3.57 -3.57,3.57 -1.97,0 -3.57,-1.6 -3.57,-3.57 0,-1.97 1.6,-3.57 3.57,-3.57zm0 0.89c1.48,0 2.68,1.2 2.68,2.68 0,1.48 -1.2,2.68 -2.68,2.68 -1.48,0 -2.68,-1.2 -2.68,-2.68 0,-1.48 1.2,-2.68 2.68,-2.68z"/>
  </g>
 </g>
</svg>
