<svg width="32" height="32" fill="none" xmlns="http://www.w3.org/2000/svg"><path d="M16 32c8.837 0 16-7.163 16-16S24.837 0 16 0 0 7.163 0 16s7.163 16 16 16Z" fill="#5F0BDD"/><path d="M20.6 9.222h-.427l-1.616 1.617-11.702 3.343v3.637l3.558 1.016a2.804 2.804 0 0 0 1.978 3.233 2.804 2.804 0 0 0 3.385-1.7l2.78.795 1.617 1.616c.14.003.285 0 .427 0V9.22v.002Zm-9.777 9.733 4.54 1.298a2.37 2.37 0 0 1-2.856 1.406 2.371 2.371 0 0 1-1.684-2.704Z" fill="#5F0BDD"/><path d="m19.079 11.203.89-.89v11.38l-.89-.89v-9.6ZM7.481 14.658l10.771-3.078v8.845l-10.77-3.077v-2.69Z" fill="#16FC91" stroke="#fff" stroke-width=".4"/><path d="m22.34 18.6 2.6 2.599M22.34 16h2.6-2.6Zm0-2.599 2.6-2.599-2.6 2.6Z" stroke="#fff" stroke-width=".786"/></svg>