<?xml version="1.0" encoding="UTF-8"?>
<!DOCTYPE svg PUBLIC "-//W3C//DTD SVG 1.1//EN" "http://www.w3.org/Graphics/SVG/1.1/DTD/svg11.dtd">
<!-- Creator: CorelDRAW 2021 (64-Bit) -->
<svg xmlns="http://www.w3.org/2000/svg" xml:space="preserve" width="0.853067in" height="0.909256in" version="1.1" style="shape-rendering:geometricPrecision; text-rendering:geometricPrecision; image-rendering:optimizeQuality; fill-rule:evenodd; clip-rule:evenodd"
viewBox="0 0 47.8 50.95"
 xmlns:xlink="http://www.w3.org/1999/xlink"
 xmlns:xodm="http://www.corel.com/coreldraw/odm/2003">
 <defs>
  <style type="text/css">
   <![CDATA[
    .fil2 {fill:#00DA7A}
    .fil1 {fill:#29085C}
    .fil0 {fill:#29085C;fill-opacity:0.188235}
   ]]>
  </style>
 </defs>
 <g id="Layer_x0020_1">
  <metadata id="CorelCorpID_0Corel-Layer"/>
  <path class="fil0" d="M5.33 0l37.14 0c2.93,0 5.33,2.4 5.33,5.33l0 40.29c0,2.93 -2.4,5.33 -5.33,5.33l-37.14 0c-2.93,0 -5.33,-2.4 -5.33,-5.33l0 -40.29c0,-2.93 2.4,-5.33 5.33,-5.33z"/>
  <g id="_2442806584512">
   <path class="fil1" d="M8.66 14.97c0,2.34 2.27,3.57 4.29,4.37 4.18,1.64 11.2,1.66 15.4,0.04 2.06,-0.79 4.38,-2.04 4.38,-4.41 0,-1.06 -1.02,-2.1 -1.65,-2.55 -4.35,-3.12 -12.93,-3.34 -17.82,-1.51 -1.03,0.38 -1.98,0.84 -2.87,1.46 -0.69,0.47 -1.73,1.53 -1.73,2.6z"/>
   <path class="fil1" d="M20.12 37.26c3.71,0 6.79,-0.39 9.64,-1.82 0.15,-0.08 0.3,-0.15 0.44,-0.23 -2.18,-0.13 -4.13,-1.05 -5.56,-2.46 -1.47,0.22 -2.95,0.31 -4.27,0.31 -3.26,0 -7.51,-0.81 -9.94,-2.55 -0.39,-0.28 -0.71,-0.61 -1.05,-0.99 -0.36,-0.4 -0.34,-0.55 -0.52,-1.01l-0.21 -0.43c0,1.37 -0.27,3.88 0.21,4.88 0.49,1.02 1.74,1.95 2.76,2.47 2.15,1.08 5.33,1.82 8.49,1.82z"/>
   <path class="fil1" d="M19.49 31.66c1.42,0 2.8,-0.02 4.13,-0.14 -0.81,-1.19 -1.29,-2.6 -1.34,-4.11 -4.49,0.28 -9.39,-0.46 -12,-2.6 -0.85,-0.7 -1.08,-0.96 -1.47,-1.97l-0.15 -0.36c0,1.3 -0.22,3.81 0.17,4.8 1.23,3.07 7.58,4.38 10.66,4.38z"/>
   <path class="fil1" d="M20.63 26.18c0.57,0 1.14,-0.02 1.71,-0.06 0.23,-1.7 1.01,-3.23 2.16,-4.43 -4.76,0.68 -10.92,0.02 -14.03,-2.3 -1.86,-1.39 -1.42,-1.89 -1.82,-2.51 0,1.19 -0.18,4.11 0.25,4.97 1.66,3.31 8.18,4.33 11.73,4.33zm12.15 -6.86c0,-0.91 -0.05,-1.83 -0.05,-2.44 -0.2,0.31 -0.16,0.75 -0.63,1.41 -0.22,0.3 -0.48,0.57 -0.78,0.81 0.5,0.03 0.99,0.1 1.46,0.22z"/>
  </g>
  <path class="fil2" d="M30.78 19.74c4.05,0 7.33,3.27 7.33,7.3 0,4.03 -3.28,7.3 -7.33,7.3 -4.05,0 -7.33,-3.27 -7.33,-7.3 0,-4.03 3.28,-7.3 7.33,-7.3zm-3.33 7.58l-1.35 1.54 1.36 1.62 0 -0.95 2.21 0c0,0 0.84,-0.02 1.6,-1.08l0.01 0.01c0.93,1.61 1.62,1.62 1.62,1.62l2.44 0 0 -1.35c0,0 -0.75,0 -1.67,0 -0.92,0 -0.95,-0.34 -0.95,-0.34 0,0 -0.24,-0.37 -0.71,-1.19 0.47,-0.82 0.72,-1.2 0.72,-1.2 0,0 0.04,-0.34 0.95,-0.34 0.92,0 1.67,0 1.67,0l0 -1.35 -2.44 0c0,0 -0.69,0.01 -1.62,1.62l-0.01 0.02c-0.75,-1.07 -1.6,-1.09 -1.6,-1.09l-2.21 0 0 -0.95 -1.36 1.62 1.35 1.54 -0.01 -0.86c0,0 1.04,0 1.67,0 0.63,0 1.11,0.49 1.11,0.49 0,0 0.05,0.06 0.32,0.49 -0.26,0.43 -0.31,0.48 -0.31,0.48 0,0 -0.48,0.5 -1.11,0.5 -0.63,0 -1.67,0 -1.67,0l0.01 -0.86z"/>
 </g>
</svg>
