<svg width="65" height="39" viewBox="0 0 65 39" fill="none" xmlns="http://www.w3.org/2000/svg">
<path d="M63.7939 6.30832C59.4954 2.3859 54.4392 0.218724 48.552 0.0163344C42.5269 -0.19501 37.2021 1.6462 32.5973 5.44324C32.4558 5.55966 32.3322 5.67966 32.239 5.76384C32.1459 5.67966 32.0241 5.55966 31.8808 5.44324C27.2778 1.6462 21.9548 -0.19501 15.9279 0.0163344C10.0425 0.222306 4.97735 2.3859 0.685975 6.30832C0.38866 6.58056 0 6.94236 0 6.94236L3.76122 10.4439C3.76122 10.4439 4.02451 10.2092 4.62989 9.67193C11.409 3.54472 22.0909 3.52323 28.8898 9.61641C30.1813 10.7717 31.3082 12.0987 32.239 13.5603C33.168 12.0957 34.2938 10.7657 35.5847 9.60745C42.3908 3.51785 53.0673 3.53576 59.8446 9.66297C60.45 10.2003 60.7187 10.4439 60.7187 10.4439L64.4799 6.94236C64.4799 6.94236 64.093 6.58056 63.7939 6.30832Z" fill="#1D19AF"/>
<path d="M16.9901 10.359C9.9172 10.2193 3.747 15.7322 3.75954 22.9591C3.77387 29.9049 9.50347 35.5198 16.5638 35.527C23.7782 35.527 29.5436 29.9586 29.5526 22.9681C29.5526 16.1316 23.8355 10.4916 16.9901 10.359ZM16.6175 30.4619C12.3566 30.4619 8.92495 27.0786 8.94286 22.9036C8.96077 18.7842 12.3996 15.4439 16.6623 15.4134C20.8677 15.383 24.3639 18.8164 24.3639 22.9717C24.3639 27.1269 20.9089 30.4655 16.6175 30.4619Z" fill="#1D19AF"/>
<path d="M48.1614 10.3579C41.0868 10.2218 34.9166 15.7311 34.9291 22.9562C34.9398 29.8823 40.6605 35.5133 47.6743 35.5277C54.9334 35.542 60.7096 29.9754 60.7203 22.9724C60.7311 16.1341 55.0033 10.4905 48.1614 10.3579ZM47.7405 30.4626C43.528 30.4626 40.0999 27.0596 40.1124 22.9133C40.1232 18.7938 43.596 15.4141 47.814 15.4141C52.0319 15.4141 55.5263 18.8171 55.5245 22.9634C55.5227 27.1455 52.0767 30.4679 47.7405 30.4626Z" fill="#1D19AF"/>
<path d="M29.1442 33.5622L32.2409 38.5969L35.3376 33.5622L32.2409 30.4619L29.1442 33.5622Z" fill="#1D19AF"/>
</svg>
