<svg xmlns="http://www.w3.org/2000/svg" viewBox="0 0 898.91 215.5"><defs><style>.cls-1{fill:#1d19af;}</style></defs><g id="Layer_2" data-name="Layer 2"><g id="Layer_1-2" data-name="Layer 1"><path class="cls-1" d="M356.18,35.22c-24-21.9-52.23-34-85.1-35.13-33.64-1.18-63.37,9.1-89.08,30.3-.79.65-1.48,1.32-2,1.79-.52-.47-1.2-1.14-2-1.79C152.3,9.19,122.58-1.09,88.93.09,56.07,1.24,27.79,13.32,3.83,35.22,2.17,36.74,0,38.76,0,38.76L21,58.31S22.47,57,25.85,54c37.85-34.21,97.49-34.33,135.45-.31A105.79,105.79,0,0,1,180,75.71l0,0,0,0a105.74,105.74,0,0,1,18.68-22.07c38-34,97.61-33.9,135.45.31,3.38,3,4.88,4.36,4.88,4.36l21-19.55S357.85,36.74,356.18,35.22Z"/><path class="cls-1" d="M94.86,57.84c-39.49-.78-73.94,30-73.87,70.35.08,38.78,32.07,70.13,71.49,70.17,40.28,0,72.47-31.09,72.52-70.12C165,90.07,133.08,58.58,94.86,57.84ZM92.78,170.08c-23.79,0-42.95-18.89-42.85-42.2.1-23,19.3-41.65,43.1-41.82,23.48-.17,43,19,43,42.2S116.74,170.1,92.78,170.08Z"/><path class="cls-1" d="M268.9,57.83c-39.5-.76-73.95,30-73.88,70.34.06,38.67,32,70.11,71.16,70.19,40.53.08,72.78-31,72.84-70.1C339.08,90.08,307.1,58.57,268.9,57.83Zm-2.35,112.25c-23.52,0-42.66-19-42.59-42.15.06-23,19.45-41.87,43-41.87s43.06,19,43.05,42.15C310,151.56,290.76,170.11,266.55,170.08Z"/><polygon class="cls-1" points="162.72 187.39 180.01 215.5 197.3 187.39 180.01 170.08 162.72 187.39"/><path class="cls-1" d="M526.46,56a28.53,28.53,0,0,0-9.13-12.12h0c-4.19-3.26-9.67-4.92-16.29-4.92-6.09,0-11.26,1-15.35,3a32.75,32.75,0,0,0-9.83,6.9,60.37,60.37,0,0,0-4.51,5.33A31.63,31.63,0,0,0,463,44.26c-4.36-3.54-10-5.33-16.71-5.33a33,33,0,0,0-13.45,2.48,31.75,31.75,0,0,0-9.17,5.92,55,55,0,0,0-3.85,4V48.15a8.06,8.06,0,0,0-2.54-6,8.38,8.38,0,0,0-6.07-2.47A8.14,8.14,0,0,0,405,42.44a8.65,8.65,0,0,0-2.22,5.88v67.82a7.9,7.9,0,0,0,2.46,5.88,8.24,8.24,0,0,0,6,2.39,8.59,8.59,0,0,0,6.3-2.61,8.08,8.08,0,0,0,2.31-5.73V75.83a20.45,20.45,0,0,1,5-13.55l.06-.07a25.11,25.11,0,0,1,7.15-5.53,21.45,21.45,0,0,1,10-2.17c5.76,0,9.79,1.53,12,4.53s3.44,7.93,3.44,14.31v42.79A7.89,7.89,0,0,0,460,122a8.26,8.26,0,0,0,6,2.39,8.59,8.59,0,0,0,6.3-2.61,8.11,8.11,0,0,0,2.3-5.72V75.53a20,20,0,0,1,5-13.25l.06-.07a25.1,25.1,0,0,1,7.14-5.53,21.47,21.47,0,0,1,10-2.17c5.76,0,9.8,1.53,12,4.53s3.43,7.93,3.43,14.31v42.79A7.93,7.93,0,0,0,514.7,122a8.28,8.28,0,0,0,6,2.39A8.63,8.63,0,0,0,527,121.8a8.12,8.12,0,0,0,2.3-5.73V70.5A39.49,39.49,0,0,0,526.46,56Z"/><path class="cls-1" d="M622.16,59.06a38.65,38.65,0,0,0-15-15.18,48.84,48.84,0,0,0-44.88,0,38,38,0,0,0-15,15.18,46.75,46.75,0,0,0-5.25,22.49A46.69,46.69,0,0,0,547.34,104a38,38,0,0,0,15,15.19,48.84,48.84,0,0,0,44.88,0,38.65,38.65,0,0,0,15-15.18,46,46,0,0,0,5.34-22.5A45.94,45.94,0,0,0,622.16,59.06ZM610.46,81.4c0,6.71-1.33,12.19-4,16.26a23.42,23.42,0,0,1-9.84,8.86,27.39,27.39,0,0,1-23.81,0A22.79,22.79,0,0,1,563,97.67c-2.58-4.07-3.88-9.55-3.88-16.27s1.3-12.17,3.88-16.19a22.43,22.43,0,0,1,9.81-8.69,29.43,29.43,0,0,1,12-2.68,28.81,28.81,0,0,1,11.87,2.68,23,23,0,0,1,9.83,8.7C609.13,69.24,610.46,74.68,610.46,81.4Z"/><path class="cls-1" d="M720.37,59.06a38.67,38.67,0,0,0-15-15.18A44.78,44.78,0,0,0,683,38.42a45.24,45.24,0,0,0-22.48,5.46,38,38,0,0,0-15,15.18,46.63,46.63,0,0,0-5.25,22.49A46.55,46.55,0,0,0,645.55,104a38,38,0,0,0,15,15.19A45.19,45.19,0,0,0,683,124.69a44.72,44.72,0,0,0,22.4-5.46,38.67,38.67,0,0,0,15-15.18,46.06,46.06,0,0,0,5.34-22.5A46,46,0,0,0,720.37,59.06ZM708.66,81.4c0,6.71-1.33,12.19-4,16.26a23.46,23.46,0,0,1-9.83,8.86,27.45,27.45,0,0,1-23.82,0,22.77,22.77,0,0,1-9.82-8.84c-2.58-4.07-3.89-9.55-3.89-16.27s1.31-12.17,3.88-16.19A22.45,22.45,0,0,1,671,56.52a29.39,29.39,0,0,1,12-2.68,28.85,28.85,0,0,1,11.88,2.68,23.11,23.11,0,0,1,9.83,8.7C707.33,69.24,708.66,74.68,708.66,81.4Z"/><path class="cls-1" d="M846.64,23.73h0a8.5,8.5,0,0,0-6.14-2.5h-.9a8.5,8.5,0,0,0-6.14,2.5,8.18,8.18,0,0,0-2.58,6v.58a8.18,8.18,0,0,0,2.58,6,8.5,8.5,0,0,0,6.14,2.5h.9a8.56,8.56,0,0,0,6.15-2.5,8.21,8.21,0,0,0,2.57-6v-.58A8.21,8.21,0,0,0,846.64,23.73Z"/><path class="cls-1" d="M840,45.89a8.29,8.29,0,0,0-6,2.38,8.11,8.11,0,0,0-2.45,6v61.83A7.89,7.89,0,0,0,834,122a8.26,8.26,0,0,0,6,2.39,8.45,8.45,0,0,0,6.15-2.39,7.89,7.89,0,0,0,2.45-5.88V54.31a8.11,8.11,0,0,0-2.45-6A8.49,8.49,0,0,0,840,45.89Z"/><path class="cls-1" d="M868,39a1.44,1.44,0,0,1-1.05-.42,1.38,1.38,0,0,1-.44-1V23.9h-4.79a1.36,1.36,0,0,1-1-.4,1.34,1.34,0,0,1,0-1.91,1.36,1.36,0,0,1,1-.4h12.66a1.34,1.34,0,0,1,1,.4,1.32,1.32,0,0,1,0,1.91,1.34,1.34,0,0,1-1,.4h-4.84V37.57a1.38,1.38,0,0,1-.44,1A1.49,1.49,0,0,1,868,39Zm11.94,0a1.54,1.54,0,0,1-1.08-.44,1.44,1.44,0,0,1-.45-1.06V23.06a1.91,1.91,0,0,1,.57-1.38,2,2,0,0,1,1.44-.59h.82a2.07,2.07,0,0,1,1.15.35,1.86,1.86,0,0,1,.72.87l5.56,13.44,5.57-13.44a2.19,2.19,0,0,1,.74-.87,2,2,0,0,1,1.13-.35h.81a1.93,1.93,0,0,1,1.44.59,1.88,1.88,0,0,1,.58,1.38V37.52a1.49,1.49,0,0,1-1.54,1.5,1.54,1.54,0,0,1-1.08-.44,1.44,1.44,0,0,1-.45-1.06V25.26l-5.33,12.59a2.08,2.08,0,0,1-3.74,0l-5.32-12.59V37.52a1.49,1.49,0,0,1-1.54,1.5Z"/><path class="cls-1" d="M777.6,161.85a41,41,0,0,1-33.52-17.23,8.27,8.27,0,0,1-1.46-6.31,8.64,8.64,0,0,1,8.22-7,9.06,9.06,0,0,1,1.54.13,7.73,7.73,0,0,1,5.45,3.38,24.19,24.19,0,0,0,8.71,7.48,23.92,23.92,0,0,0,11.06,2.64,24.12,24.12,0,0,0,24.06-24.28v-4l-3.37,2.08a40.35,40.35,0,0,1-20.69,5.6,41.14,41.14,0,0,1-41.17-41.17V47.36a8.43,8.43,0,0,1,8.48-8.47,8.26,8.26,0,0,1,6.1,2.45,8.1,8.1,0,0,1,2.47,6V83.1a23,23,0,0,0,7,16.93,24.09,24.09,0,0,0,34.17,0,22.72,22.72,0,0,0,7-16.83V47.43a8.1,8.1,0,0,1,2.46-6,8.42,8.42,0,0,1,6.1-2.54,8.43,8.43,0,0,1,8.48,8.47v73.39a41.14,41.14,0,0,1-41.1,41.1Z"/><path d="M410.86,196.81a3.23,3.23,0,0,1-.82,2.34,3.29,3.29,0,0,1-4.39,0,3.23,3.23,0,0,1-.82-2.34v-28.1h-2.47c-2,0-3-.87-3-2.61s1-2.61,3-2.61h2.47v-8.58c0-2.65.78-4.63,2.36-5.93a8.64,8.64,0,0,1,5.66-2h1.86a4.35,4.35,0,0,1,2.29.69,2.14,2.14,0,0,1,1.14,1.92q0,2.61-3.3,2.61h-1.51a2.46,2.46,0,0,0-1.92.62,2.61,2.61,0,0,0-.55,1.78v8.85h3.78c2,0,3,.87,3,2.61s-1,2.61-3,2.61h-3.78Z"/><path d="M420.16,174.9a18.12,18.12,0,0,1,3.12-5.84,15.28,15.28,0,0,1,5.05-4.06A16.18,16.18,0,0,1,442,165a15.25,15.25,0,0,1,5,4.06,17.75,17.75,0,0,1,3.12,5.84,22.43,22.43,0,0,1,0,13.69,17.85,17.85,0,0,1-3.12,5.84,15.09,15.09,0,0,1-5,4,16.18,16.18,0,0,1-13.65,0,15.13,15.13,0,0,1-5.05-4,18.23,18.23,0,0,1-3.12-5.84,22.63,22.63,0,0,1,0-13.69Zm5.49,11.4a12.92,12.92,0,0,0,1.72,4.19,9.7,9.7,0,0,0,3.12,3.09,9.73,9.73,0,0,0,9.36,0,9.91,9.91,0,0,0,3.09-3.09,13.37,13.37,0,0,0,1.72-4.19,20.6,20.6,0,0,0,0-9.11,13.28,13.28,0,0,0-1.72-4.19,9.83,9.83,0,0,0-3.09-3.1,9.8,9.8,0,0,0-9.36,0,9.63,9.63,0,0,0-3.12,3.1,12.83,12.83,0,0,0-1.72,4.19,20.21,20.21,0,0,0,0,9.11Z"/><path d="M457.59,166.64a3.15,3.15,0,0,1,.82-2.31,3.29,3.29,0,0,1,4.39,0,3.16,3.16,0,0,1,.83,2.31v3h.13a16.83,16.83,0,0,1,1.41-2.11,13,13,0,0,1,1.92-2,9.68,9.68,0,0,1,2.33-1.48,6.27,6.27,0,0,1,2.58-.57,3.4,3.4,0,0,1,2.47.87,2.9,2.9,0,0,1,.89,2.15q0,2.55-3.77,3.22a11,11,0,0,0-2.75.84,7.83,7.83,0,0,0-2.57,1.85,9.79,9.79,0,0,0-1.89,3,11.62,11.62,0,0,0-.75,4.43v17a3.16,3.16,0,0,1-.83,2.31,3.29,3.29,0,0,1-4.39,0,3.15,3.15,0,0,1-.82-2.31Z"/><path d="M496.35,154.43a3.68,3.68,0,0,1,.76-2.33,3,3,0,0,1,2.47-1h10.63a14.67,14.67,0,0,1,5.7,1,12.36,12.36,0,0,1,4.12,2.71,11.82,11.82,0,0,1,2.5,3.77,10.94,10.94,0,0,1,.86,4.15,12.2,12.2,0,0,1-1.89,6.9,9.09,9.09,0,0,1-4.9,3.81v.14a10.54,10.54,0,0,1,4.11,1.23,12.85,12.85,0,0,1,3.37,2.61,11.75,11.75,0,0,1,2.26,3.7,12.43,12.43,0,0,1,.82,4.53,14.16,14.16,0,0,1-1.06,5.46,13.43,13.43,0,0,1-3.09,4.53,15,15,0,0,1-5,3.12,18.57,18.57,0,0,1-6.82,1.16h-11.6a3,3,0,0,1-2.47-1,3.66,3.66,0,0,1-.76-2.33Zm6,17.36h6.86a7.78,7.78,0,0,0,6-2.26,8,8,0,0,0,2.09-5.63,7.79,7.79,0,0,0-1.92-5.42q-1.92-2.13-6-2.13h-7.07Zm0,23h8.51a10.87,10.87,0,0,0,7.34-2.47,8.25,8.25,0,0,0,2.88-6.59,9.34,9.34,0,0,0-.65-3.5,7.83,7.83,0,0,0-2-2.88,9.31,9.31,0,0,0-3.12-1.92,11.89,11.89,0,0,0-4.22-.69h-8.79Z"/><path d="M533.2,166.64a3.15,3.15,0,0,1,.82-2.31,3.29,3.29,0,0,1,4.39,0,3.12,3.12,0,0,1,.83,2.3v18.86q0,9.28,8.44,9.29t8.44-9.29V166.63a3.11,3.11,0,0,1,.82-2.3,3.29,3.29,0,0,1,4.39,0,3.16,3.16,0,0,1,.83,2.31v19.13a16,16,0,0,1-1.24,6.61,12,12,0,0,1-7.89,6.88,20,20,0,0,1-10.7,0,12,12,0,0,1-7.89-6.88,15.82,15.82,0,0,1-1.24-6.61Z"/><path d="M570.39,169.17a10.31,10.31,0,0,1,2.85-3.14,12.32,12.32,0,0,1,4-1.9,16,16,0,0,1,4.49-.64,19.78,19.78,0,0,1,8,1.82,11.29,11.29,0,0,1,3,2,3.57,3.57,0,0,1,1.2,2.61,2.49,2.49,0,0,1-.68,1.72,2.67,2.67,0,0,1-2.06.75,2.87,2.87,0,0,1-1.75-.58l-1.75-1.27a12.31,12.31,0,0,0-2.33-1.27,9.25,9.25,0,0,0-3.57-.58,8.66,8.66,0,0,0-4.49,1.1,3.64,3.64,0,0,0-1.89,3.37,3.16,3.16,0,0,0,1.44,2.61,16.71,16.71,0,0,0,3.6,2q2.16.92,4.7,1.81a28.46,28.46,0,0,1,4.7,2.14,12.89,12.89,0,0,1,3.6,3,6.6,6.6,0,0,1,1.45,4.35,9.8,9.8,0,0,1-1.14,4.85,10.62,10.62,0,0,1-3,3.41,13.14,13.14,0,0,1-4.26,2,18.51,18.51,0,0,1-4.94.66,21,21,0,0,1-5.38-.65,19.25,19.25,0,0,1-4.36-1.65,10.19,10.19,0,0,1-2.92-2.22,3.81,3.81,0,0,1-1.06-2.41,2.68,2.68,0,0,1,.76-2,2.36,2.36,0,0,1,1.71-.75,3.36,3.36,0,0,1,2,.69c.64.45,1.4,1,2.27,1.54a16.27,16.27,0,0,0,3,1.54,11.27,11.27,0,0,0,4.19.69,8,8,0,0,0,5.18-1.51,4.24,4.24,0,0,0,1.89-3.3,3.72,3.72,0,0,0-1.44-2.95,16.52,16.52,0,0,0-3.61-2.2c-1.44-.67-3-1.33-4.7-2a33.94,33.94,0,0,1-4.7-2.2,13.52,13.52,0,0,1-3.6-2.94,6.26,6.26,0,0,1-1.44-4.18A8.47,8.47,0,0,1,570.39,169.17Z"/><path d="M601,152.2a3.7,3.7,0,0,1,6.34,2.64,3.62,3.62,0,0,1-3.7,3.71,3.55,3.55,0,0,1-2.64-1.06,3.8,3.8,0,0,1,0-5.29Zm5.66,44.64a3.16,3.16,0,0,1-.83,2.31,3.29,3.29,0,0,1-4.39,0,3.15,3.15,0,0,1-.82-2.31v-30.2a3.15,3.15,0,0,1,.82-2.31,3.29,3.29,0,0,1,4.39,0,3.16,3.16,0,0,1,.83,2.31Z"/><path d="M614.58,166.64a3.15,3.15,0,0,1,.82-2.31,3.26,3.26,0,0,1,4.39,0,3.27,3.27,0,0,1,.82,2.37v1.44l.14.13a11.25,11.25,0,0,1,4.67-3.7,14.19,14.19,0,0,1,5.42-1.1,14.68,14.68,0,0,1,4.35.7,11.54,11.54,0,0,1,4.09,2.32,12.48,12.48,0,0,1,3.05,4.19,15.05,15.05,0,0,1,1.2,6.35v19.79a3.15,3.15,0,0,1-.82,2.31,3.3,3.3,0,0,1-4.39,0,3.16,3.16,0,0,1-.83-2.31V177.46a9.76,9.76,0,0,0-.75-4,7.92,7.92,0,0,0-2-2.71,7.82,7.82,0,0,0-2.71-1.53,9.37,9.37,0,0,0-6,0,7.92,7.92,0,0,0-2.71,1.53,7.77,7.77,0,0,0-2,2.71,9.6,9.6,0,0,0-.76,4v19.39a3.15,3.15,0,0,1-.82,2.31,2.93,2.93,0,0,1-2.2.83,2.89,2.89,0,0,1-2.19-.84,3.15,3.15,0,0,1-.82-2.31Z"/><path d="M655.33,184.07a12,12,0,0,0,.72,4.2,9.6,9.6,0,0,0,2.13,3.4,10,10,0,0,0,3.4,2.28,11.68,11.68,0,0,0,4.52.83,13.57,13.57,0,0,0,5-.79,16.58,16.58,0,0,0,3.33-1.72c.89-.61,1.65-1.17,2.26-1.68a2.87,2.87,0,0,1,1.75-.75,2.11,2.11,0,0,1,1.51.68,2.7,2.7,0,0,1,.69,2,3.64,3.64,0,0,1-1.27,2.41,13.87,13.87,0,0,1-3.36,2.43,23.28,23.28,0,0,1-4.7,1.89A19,19,0,0,1,666,200a17.29,17.29,0,0,1-7.55-1.51,14.73,14.73,0,0,1-5.22-4,16.74,16.74,0,0,1-3-5.84,24.38,24.38,0,0,1-1-6.85,21.22,21.22,0,0,1,1.14-6.94,18,18,0,0,1,3.22-5.84,15.14,15.14,0,0,1,5.15-4,15.52,15.52,0,0,1,6.89-1.48,14.51,14.51,0,0,1,6.66,1.51,15.41,15.41,0,0,1,4.94,4,18.14,18.14,0,0,1,3.05,5.59,19.55,19.55,0,0,1,1.07,6.35,3.55,3.55,0,0,1-.69,2.36,3.44,3.44,0,0,1-2.68.8Zm20-4.52a13.12,13.12,0,0,0-.59-3.84,11.12,11.12,0,0,0-1.75-3.47,8.88,8.88,0,0,0-7.34-3.53A8.94,8.94,0,0,0,657.8,172a10.44,10.44,0,0,0-1.82,3.54,16.06,16.06,0,0,0-.65,4Z"/><path d="M687.44,169.17a10.31,10.31,0,0,1,2.85-3.14,12.42,12.42,0,0,1,4-1.9,16.08,16.08,0,0,1,4.49-.64,18.6,18.6,0,0,1,4,.48,18.25,18.25,0,0,1,3.94,1.34,11.35,11.35,0,0,1,3,2,3.57,3.57,0,0,1,1.2,2.61,2.5,2.5,0,0,1-.69,1.72,2.65,2.65,0,0,1-2.06.75,2.87,2.87,0,0,1-1.75-.58c-.52-.39-1.11-.81-1.75-1.27a12,12,0,0,0-2.33-1.27,9.18,9.18,0,0,0-3.57-.58,8.71,8.71,0,0,0-4.49,1.1,3.64,3.64,0,0,0-1.89,3.37,3.16,3.16,0,0,0,1.44,2.61,16.8,16.8,0,0,0,3.61,2c1.44.61,3,1.21,4.7,1.81a28.84,28.84,0,0,1,4.7,2.14,12.89,12.89,0,0,1,3.6,3,6.59,6.59,0,0,1,1.44,4.35,9.91,9.91,0,0,1-1.13,4.85,10.65,10.65,0,0,1-3,3.41,13,13,0,0,1-4.25,2,18.56,18.56,0,0,1-4.94.66,21.12,21.12,0,0,1-5.39-.65,19.25,19.25,0,0,1-4.36-1.65,10.13,10.13,0,0,1-2.91-2.22,3.77,3.77,0,0,1-1.07-2.41,2.72,2.72,0,0,1,.76-2,2.36,2.36,0,0,1,1.72-.75,3.35,3.35,0,0,1,2,.69c.65.45,1.4,1,2.27,1.54a16.38,16.38,0,0,0,3,1.54,11.22,11.22,0,0,0,4.18.69,8,8,0,0,0,5.18-1.51,4.24,4.24,0,0,0,1.89-3.3,3.72,3.72,0,0,0-1.44-2.95,16.43,16.43,0,0,0-3.6-2.2q-2.16-1-4.7-2a33.4,33.4,0,0,1-4.7-2.2,13.52,13.52,0,0,1-3.6-2.94,6.27,6.27,0,0,1-1.45-4.18A8.47,8.47,0,0,1,687.44,169.17Z"/><path d="M717.91,169.17a10.4,10.4,0,0,1,2.84-3.14,12.52,12.52,0,0,1,4-1.9,16.15,16.15,0,0,1,4.5-.64,18.59,18.59,0,0,1,4,.48,18.34,18.34,0,0,1,4,1.34,11.46,11.46,0,0,1,3,2,3.57,3.57,0,0,1,1.2,2.61,2.53,2.53,0,0,1-.68,1.72,2.67,2.67,0,0,1-2.06.75,2.85,2.85,0,0,1-1.75-.58l-1.75-1.27a12.11,12.11,0,0,0-2.34-1.27,9.16,9.16,0,0,0-3.56-.58,8.73,8.73,0,0,0-4.5,1.1,3.63,3.63,0,0,0-1.88,3.37,3.16,3.16,0,0,0,1.44,2.61,16.71,16.71,0,0,0,3.6,2q2.16.92,4.7,1.81a28.46,28.46,0,0,1,4.7,2.14,12.89,12.89,0,0,1,3.6,3,6.59,6.59,0,0,1,1.44,4.35,9.91,9.91,0,0,1-1.13,4.85,10.53,10.53,0,0,1-3,3.41,13,13,0,0,1-4.25,2A18.56,18.56,0,0,1,729,200a21.12,21.12,0,0,1-5.39-.65,19,19,0,0,1-4.35-1.65,10,10,0,0,1-2.92-2.22,3.76,3.76,0,0,1-1.06-2.41,2.72,2.72,0,0,1,.75-2,2.39,2.39,0,0,1,1.72-.75,3.38,3.38,0,0,1,2,.69c.64.45,1.39,1,2.26,1.54a16.7,16.7,0,0,0,3,1.54,11.24,11.24,0,0,0,4.19.69,8.07,8.07,0,0,0,5.18-1.51,4.25,4.25,0,0,0,1.88-3.3,3.72,3.72,0,0,0-1.44-2.95,16.43,16.43,0,0,0-3.6-2.2q-2.16-1-4.7-2a33.4,33.4,0,0,1-4.7-2.2,13.52,13.52,0,0,1-3.6-2.94,6.26,6.26,0,0,1-1.44-4.18A8.37,8.37,0,0,1,717.91,169.17Z"/></g></g></svg>