<svg width="20" height="20" viewBox="0 0 20 20" fill="none" xmlns="http://www.w3.org/2000/svg">
<path d="M15.8327 9.99992H9.99935V4.16659C9.99935 3.66659 9.66602 3.33325 9.16602 3.33325C4.99935 3.33325 1.66602 6.66659 1.66602 10.8333C1.66602 14.9999 4.99935 18.3333 9.16602 18.3333C13.3327 18.3333 16.666 14.9999 16.666 10.8333C16.666 10.3333 16.3327 9.99992 15.8327 9.99992ZM9.99935 16.5833C6.83268 17.0833 7.91602 14.8333 7.49935 11.6666C6.99935 8.49992 2.66602 10.4166 5.83268 9.99992L3.41602 8.33325C3.41602 8.83325 4.91602 16.2499 5.41602 16.2499L9.16602 16.6526C8.83268 19.236 12.5827 16.2499 9.99935 16.5833Z" fill="white"/>
</svg>