<svg width="46" height="46" viewBox="0 0 46 46" fill="none" xmlns="http://www.w3.org/2000/svg">
<path d="M36.0484 26.9047H5.64219C5.4125 26.9047 5.22656 26.7187 5.22656 26.489V6.71403C5.22656 6.48434 5.4125 6.2984 5.64219 6.2984H36.0484C36.2781 6.2984 36.4641 6.48434 36.4641 6.71403V26.489C36.4641 26.7187 36.2781 26.9047 36.0484 26.9047Z" fill="#5F0BDD"/>
<path d="M8.66016 31.4657V24.1157H16.2727L8.66016 31.4657Z" fill="#5F0BDD"/>
<path d="M16.6672 37.2843H40.1172C40.3359 37.2843 40.5109 37.1093 40.5109 36.8906V21.6875C40.5109 21.4687 40.3359 21.2937 40.1172 21.2937H16.6672C16.4484 21.2937 16.2734 21.4687 16.2734 21.6875V36.8906C16.2734 37.1093 16.4484 37.2843 16.6672 37.2843Z" fill="#DBCDEF"/>
<path d="M37.8438 40.8172V35.1187H31.9375L37.8438 40.8172Z" fill="#DBCDEF"/>
</svg>
