<svg width="40" height="40" fill="none" xmlns="http://www.w3.org/2000/svg"><rect width="40" height="40" rx="20" fill="#F0E7FE"/><path opacity=".4" d="M20 32.513c6.904 0 12.5-5.597 12.5-12.5 0-6.904-5.596-12.5-12.5-12.5s-12.5 5.596-12.5 12.5c0 6.903 5.596 12.5 12.5 12.5Z" fill="#fff"/><path d="M20 13.675a4.69 4.69 0 0 0-4.688 4.687c0 2.538 1.988 4.6 4.626 4.675h.225a4.679 4.679 0 0 0 4.524-4.675A4.69 4.69 0 0 0 20 13.675ZM28.473 29.2a12.47 12.47 0 0 1-8.475 3.313 12.47 12.47 0 0 1-8.475-3.313c.3-1.137 1.113-2.175 2.3-2.975 3.413-2.275 8.963-2.275 12.35 0 1.2.8 2 1.838 2.3 2.975Z" fill="#5F0BDD"/></svg>