<svg width="33" height="32" fill="none" xmlns="http://www.w3.org/2000/svg"><path d="M16.5 32c8.837 0 16-7.163 16-16s-7.163-16-16-16S.5 7.163.5 16s7.163 16 16 16Z" fill="#5F0BDD"/><path d="M18.794 18.81v.012c.06 1.085-.323 1.875-1.095 2.405-.787.54-2.001.824-3.624.824-1.617 0-2.84-.28-3.653-.817-.8-.527-1.222-1.314-1.222-2.39v-.969c0-.925.75-1.675 1.675-1.675h6.245c.925 0 1.675.75 1.675 1.675l-.001.935Zm3.326-2.61c.925 0 1.675.75 1.675 1.675v.669c.053.969-.284 1.672-.955 2.144-.684.481-1.74.737-3.15.737-.23 0-.45-.007-.66-.02.523-.622.797-1.413.796-2.36v-.005l-.008-.267.002-.898c0-.633-.218-1.215-.583-1.675h2.884ZM14 8.7a2.926 2.926 0 1 1 0 5.851A2.926 2.926 0 0 1 14 8.7Zm6.25 1.25a2.3 2.3 0 1 1 0 4.6 2.3 2.3 0 0 1 0-4.6Z" fill="#16FC91" stroke="#fff" stroke-width=".4"/></svg>